<svg width="22" height="22" viewBox="0 0 22 22" fill="none" xmlns="http://www.w3.org/2000/svg">
<path d="M16.3107 6.45455V3.72727C16.3107 2.22104 15.0897 1 13.5835 1H3.58347C2.07724 1 0.856201 2.22104 0.856201 3.72727V13.7273C0.856201 15.2335 2.07724 16.4545 3.58347 16.4545H6.31075M16.3107 6.45455H18.1289C19.6352 6.45455 20.8562 7.67559 20.8562 9.18182V18.2727C20.8562 19.779 19.6352 21 18.1289 21H9.03802C7.53179 21 6.31075 19.779 6.31075 18.2727V16.4545M16.3107 6.45455H9.03802C7.53179 6.45455 6.31075 7.67559 6.31075 9.18182V16.4545" stroke="white" stroke-width="1.5" stroke-linecap="round" stroke-linejoin="round"/>
</svg>
